<svg width="1200" height="720" viewBox="0 0 1200 720" xmlns="http://www.w3.org/2000/svg" role="img" aria-label="Preview desktop da pagina de login">
  <defs>
    <linearGradient id="bg" x1="0" y1="0" x2="1" y2="1">
      <stop offset="0%" stop-color="#071227"/>
      <stop offset="100%" stop-color="#0b1a33"/>
    </linearGradient>
    <linearGradient id="card" x1="0" y1="0" x2="1" y2="1">
      <stop offset="0%" stop-color="#13315b" stop-opacity="0.9"/>
      <stop offset="100%" stop-color="#0d2242" stop-opacity="0.92"/>
    </linearGradient>
    <linearGradient id="btn" x1="0" y1="0" x2="1" y2="1">
      <stop offset="0%" stop-color="#43d8bd"/>
      <stop offset="100%" stop-color="#7de8d4"/>
    </linearGradient>
  </defs>

  <rect width="1200" height="720" fill="url(#bg)"/>
  <circle cx="180" cy="120" r="220" fill="#43d8bd" fill-opacity="0.12"/>
  <circle cx="1060" cy="640" r="260" fill="#ff8a3d" fill-opacity="0.12"/>

  <rect x="80" y="78" width="1040" height="564" rx="24" fill="#091c3a" fill-opacity="0.75" stroke="#7bb3ff" stroke-opacity="0.25"/>

  <rect x="126" y="124" width="566" height="472" rx="20" fill="url(#card)" stroke="#92beff" stroke-opacity="0.28"/>
  <text x="166" y="176" fill="#43d8bd" font-size="17" font-family="Arial, sans-serif" letter-spacing="2">DISPONIVEL PARA CONTRATACAO</text>
  <text x="166" y="228" fill="#f4f7ff" font-size="43" font-family="Arial, sans-serif" font-weight="700">Web e C# | Curiosidade em codigo</text>
  <text x="166" y="272" fill="#c8d4f2" font-size="21" font-family="Arial, sans-serif">Landing + Login com HTML, CSS e JavaScript puro</text>
  <rect x="166" y="322" width="226" height="48" rx="24" fill="#0e274d" stroke="#92beff" stroke-opacity="0.32"/>
  <text x="195" y="352" fill="#f4f7ff" font-size="18" font-family="Arial, sans-serif">Meus projetos</text>
  <rect x="410" y="322" width="176" height="48" rx="24" fill="#ff8a3d"/>
  <text x="456" y="352" fill="#1f0e02" font-size="18" font-family="Arial, sans-serif" font-weight="700">Conversar</text>

  <rect x="726" y="124" width="352" height="472" rx="20" fill="#0a2446" fill-opacity="0.9" stroke="#43d8bd" stroke-opacity="0.44"/>
  <text x="760" y="178" fill="#f4f7ff" font-size="32" font-family="Arial, sans-serif" font-weight="700">Entrar</text>
  <text x="760" y="208" fill="#c8d4f2" font-size="16" font-family="Arial, sans-serif">Experiencia de login demo</text>

  <text x="760" y="258" fill="#c8d4f2" font-size="14" font-family="Arial, sans-serif">E-mail</text>
  <rect x="760" y="270" width="284" height="46" rx="10" fill="#102e58" stroke="#9db0de" stroke-opacity="0.34"/>

  <text x="760" y="348" fill="#c8d4f2" font-size="14" font-family="Arial, sans-serif">Senha</text>
  <rect x="760" y="360" width="284" height="46" rx="10" fill="#102e58" stroke="#9db0de" stroke-opacity="0.34"/>

  <rect x="760" y="438" width="284" height="48" rx="12" fill="url(#btn)"/>
  <text x="874" y="468" text-anchor="middle" fill="#0b1528" font-size="18" font-family="Arial, sans-serif" font-weight="700">Entrar</text>

  <rect x="760" y="510" width="284" height="34" rx="10" fill="#ffffff" fill-opacity="0.05" stroke="#48d18f" stroke-opacity="0.35"/>
  <text x="902" y="532" text-anchor="middle" fill="#48d18f" font-size="14" font-family="Arial, sans-serif">Login demo realizado com sucesso.</text>
</svg>
