<svg width="420" height="760" viewBox="0 0 420 760" xmlns="http://www.w3.org/2000/svg" role="img" aria-label="Preview mobile da pagina de login">
  <defs>
    <linearGradient id="bgm" x1="0" y1="0" x2="1" y2="1">
      <stop offset="0%" stop-color="#071227"/>
      <stop offset="100%" stop-color="#0b1a33"/>
    </linearGradient>
    <linearGradient id="btnm" x1="0" y1="0" x2="1" y2="1">
      <stop offset="0%" stop-color="#43d8bd"/>
      <stop offset="100%" stop-color="#7de8d4"/>
    </linearGradient>
  </defs>

  <rect width="420" height="760" fill="url(#bgm)"/>
  <circle cx="64" cy="70" r="120" fill="#43d8bd" fill-opacity="0.12"/>
  <circle cx="390" cy="710" r="150" fill="#ff8a3d" fill-opacity="0.14"/>

  <rect x="26" y="28" width="368" height="704" rx="22" fill="#091d3b" fill-opacity="0.74" stroke="#7bb3ff" stroke-opacity="0.22"/>

  <text x="52" y="84" fill="#43d8bd" font-size="11" font-family="Arial, sans-serif" letter-spacing="1.6">DISPONIVEL</text>
  <text x="52" y="122" fill="#f4f7ff" font-size="26" font-family="Arial, sans-serif" font-weight="700">Login demo</text>
  <text x="52" y="148" fill="#c8d4f2" font-size="14" font-family="Arial, sans-serif">UI responsiva para portfolio</text>

  <rect x="52" y="192" width="316" height="494" rx="18" fill="#0a2446" fill-opacity="0.92" stroke="#43d8bd" stroke-opacity="0.4"/>
  <text x="76" y="236" fill="#f4f7ff" font-size="24" font-family="Arial, sans-serif" font-weight="700">Entrar</text>

  <text x="76" y="276" fill="#c8d4f2" font-size="13" font-family="Arial, sans-serif">E-mail</text>
  <rect x="76" y="286" width="268" height="44" rx="10" fill="#102e58" stroke="#9db0de" stroke-opacity="0.34"/>

  <text x="76" y="362" fill="#c8d4f2" font-size="13" font-family="Arial, sans-serif">Senha</text>
  <rect x="76" y="372" width="268" height="44" rx="10" fill="#102e58" stroke="#9db0de" stroke-opacity="0.34"/>

  <rect x="76" y="444" width="268" height="46" rx="12" fill="url(#btnm)"/>
  <text x="210" y="473" text-anchor="middle" fill="#0b1528" font-size="16" font-family="Arial, sans-serif" font-weight="700">Entrar</text>

  <rect x="76" y="516" width="268" height="32" rx="9" fill="#ffffff" fill-opacity="0.05" stroke="#ff6d7a" stroke-opacity="0.4"/>
  <text x="210" y="537" text-anchor="middle" fill="#ff6d7a" font-size="12" font-family="Arial, sans-serif">Preencha e-mail e senha.</text>
</svg>
